PathFileType	4	(X/Y/Z)	C:/Users/opensim2020/Desktop/walking_exp_matlab/subject02_walking12_straight_03.trc	
DataRate	CameraRate	NumFrames	NumMarkers	Units	OrigDataRate	OrigDataStartFrame	OrigNumFrames	
100.00	100.00	4	42	mm	100.00	1526	127	
Frame#	Time	LFHD			RFHD			LBHD			RBHD			C7			T10			CLAV			STRN			RBAK			LSHO			LUPA			LELB			LFRM			LWRA			LWRB			LFIN			RSHO			RUPA			RELB			RFRM			RWRA			RWRB			RFIN			LASI			RASI			LPSI			RPSI			LTHI			LKNE			LTIB			LANK			LHEE			LTOE			RTHI			RKNE			RTIB			RANK			RHEE			RTOE			*39			*40			*41			
		X1	Y1	Z1	X2	Y2	Z2	X3	Y3	Z3	X4	Y4	Z4	X5	Y5	Z5	X6	Y6	Z6	X7	Y7	Z7	X8	Y8	Z8	X9	Y9	Z9	X10	Y10	Z10	X11	Y11	Z11	X12	Y12	Z12	X13	Y13	Z13	X14	Y14	Z14	X15	Y15	Z15	X16	Y16	Z16	X17	Y17	Z17	X18	Y18	Z18	X19	Y19	Z19	X20	Y20	Z20	X21	Y21	Z21	X22	Y22	Z22	X23	Y23	Z23	X24	Y24	Z24	X25	Y25	Z25	X26	Y26	Z26	X27	Y27	Z27	X28	Y28	Z28	X29	Y29	Z29	X30	Y30	Z30	X31	Y31	Z31	X32	Y32	Z32	X33	Y33	Z33	X34	Y34	Z34	X35	Y35	Z35	X36	Y36	Z36	X37	Y37	Z37	X38	Y38	Z38	X39	Y39	Z39	X40	Y40	Z40	X41	Y41	Z41	X42	Y42	Z42	

1	0.000	-1041.76685	-556.47705	1721.66199	-900.73694	-579.53772	1703.00500	-1071.50330	-675.08167	1633.05518	-934.02002	-709.85162	1611.72302	-996.35046	-731.50812	1498.35706	-992.99127	-791.80011	1226.34009	-1000.09155	-589.50073	1428.62292	-977.97626	-544.57123	1255.53540	-928.66443	-796.61481	1330.74292	-1171.78247	-657.24915	1464.95215	-1239.97693	-737.17346	1280.00232	-1237.33887	-788.73938	1147.19788	-1241.07861	-831.92224	1020.83618	-1191.50732	-835.97980	886.09021	-1232.90063	-871.46307	902.60101	-1217.63733	-892.57733	838.03595	-807.84277	-658.66760	1472.18335	-711.59027	-645.55261	1287.31702	-686.74744	-576.70612	1152.60266	-702.23657	-481.77335	1075.00464	-760.48041	-377.90256	1009.91187	-718.58850	-398.88971	975.60303	-738.20776	-331.90283	957.00555	-1088.43970	-542.64337	961.94043	-838.63287	-602.93274	939.10669	-1055.46106	-766.73096	1007.25690	-944.75244	-794.71545	1005.28912	-1190.79443	-534.39850	672.65784	-1172.35547	-495.24564	476.43512	-1192.78748	-478.38971	285.15448	-1184.85901	-386.01736	77.20779	-1135.54407	-408.07120	35.76515	-1192.52625	-229.41336	93.14063	-807.71582	-751.37970	647.12494	-857.15198	-801.71967	444.51025	-862.35577	-902.64606	284.15979	-907.92584	-979.49500	106.38857	-967.10150	-1023.62909	60.03643	-884.62335	-842.51337	31.55295	-971.59015	-678.56409	1775.29553	-3357.31665	2845.95044	1034.39148			 
2	0.010	-1044.14368	-544.46967	1720.38757	-903.28418	-567.98853	1701.67371	-1073.64136	-663.07941	1632.17273	-936.82550	-698.31201	1610.81348	-999.17474	-720.09314	1497.10010	-996.02130	-779.12811	1224.60742	-1002.68921	-577.63483	1427.82642	-980.57190	-531.85120	1255.04150	-931.82025	-784.47321	1329.08374	-1174.50232	-645.05115	1463.83093	-1242.34021	-724.44806	1278.45288	-1240.29260	-775.77179	1145.93408	-1244.96667	-820.29138	1020.63458	-1194.25562	-828.12665	885.63879	-1237.52637	-861.30420	902.55774	-1221.77966	-884.88324	838.67218	-810.56598	-647.65601	1471.08728	-714.41113	-634.45300	1286.33276	-689.14966	-566.46265	1151.42957	-704.32623	-470.58783	1074.57922	-762.11792	-366.50128	1010.49738	-720.70319	-387.43628	975.75610	-739.60632	-319.94626	958.11780	-1091.36731	-528.12683	961.65588	-841.44385	-589.38770	937.60071	-1059.00037	-752.76031	1005.89447	-948.44983	-780.79669	1003.60980	-1193.23401	-517.52228	672.76770	-1173.96545	-480.94156	475.16534	-1193.59460	-468.34225	283.17844	-1184.34509	-380.81921	73.35838	-1135.22168	-404.10394	33.08342	-1191.41345	-224.20146	86.22305	-809.49304	-739.84869	646.79700	-857.38330	-791.69226	444.58896	-862.39551	-896.15582	286.47427	-906.94507	-977.28925	110.51975	-965.87067	-1022.32800	65.50852	-884.19366	-842.13416	31.50261	-974.08807	-666.69958	1774.11292	-3355.36328	2846.77124	1034.24426			 
3	0.020	-1046.46179	-532.47766	1719.26318	-906.03290	-556.82501	1700.18579	-1076.87573	-651.56036	1631.53296	-939.58594	-686.76544	1610.07483	-1002.20966	-708.46399	1495.76013	-999.11438	-766.26837	1222.89282	-1005.38959	-565.75983	1427.16711	-983.27283	-519.09985	1254.60742	-934.95813	-771.57507	1327.17053	-1177.26221	-632.78961	1463.06189	-1245.81812	-711.28790	1277.34619	-1243.52759	-762.40533	1144.87268	-1248.87549	-807.79724	1020.06543	-1197.65881	-818.42114	885.60950	-1242.58618	-850.03125	902.39795	-1226.29163	-876.00928	839.06061	-813.45416	-636.67053	1470.03137	-717.33630	-624.40143	1285.19824	-691.62640	-556.49194	1150.36133	-706.18982	-460.38675	1073.89246	-763.84326	-355.31448	1011.19702	-722.70923	-376.49484	975.66089	-740.94287	-308.75836	958.77441	-1094.68774	-513.37109	961.74927	-844.44733	-575.13007	936.51398	-1062.63965	-738.46960	1004.52039	-952.32025	-766.43274	1001.88470	-1195.79248	-501.03439	672.64850	-1175.70984	-467.33966	473.68427	-1194.27502	-459.08112	280.99899	-1184.03528	-376.60510	70.10551	-1135.20264	-401.63184	31.49426	-1189.99023	-219.73149	78.40739	-811.32605	-727.88220	646.92249	-857.54321	-781.11932	444.91589	-862.36859	-889.21771	289.16956	-905.61823	-974.73474	115.30808	-964.82343	-1020.73407	71.69225	-883.60162	-841.90143	31.64848	-976.65808	-654.66364	1773.30554						 
4	0.030	-1048.89673	-520.39661	1718.19861	-908.10864	-545.02722	1699.29248	-1079.64844	-639.78638	1630.88562	-942.47101	-675.40674	1609.39465	-1005.27942	-696.88745	1494.46997	-1002.33282	-753.15143	1221.10864	-1008.11432	-553.80511	1426.57483	-986.19000	-506.03757	1254.38574	-938.23590	-759.48883	1325.47424	-1180.12903	-620.49139	1462.45398	-1249.70679	-698.06427	1276.66638	-1247.04309	-748.76080	1144.00281	-1253.13611	-794.54596	1019.48944	-1201.42603	-807.99597	885.14557	-1247.85986	-837.68408	902.09137	-1230.73938	-865.67346	839.47180	-816.40924	-625.30408	1468.90344	-720.26764	-613.86127	1284.33215	-694.21375	-546.55310	1149.12354	-708.22314	-450.56256	1073.05859	-764.98206	-344.75342	1010.74237	-724.56641	-366.23691	975.17603	-742.29266	-298.74826	958.50787	-1098.23633	-498.60031	962.11749	-847.82483	-560.35272	935.72369	-1066.47119	-723.97729	1003.17108	-956.40021	-752.07166	1000.30426	-1198.31482	-485.05484	672.35779	-1178.08765	-454.74844	472.29706	-1194.11194	-450.16147	278.75168	-1183.54333	-371.84763	68.22209	-1134.82385	-398.71164	33.59679	-1189.92407	-212.98450	66.47021	-813.22620	-715.50677	647.06232	-857.68402	-769.90967	445.46735	-862.31915	-881.86334	292.35565	-904.42529	-971.71613	120.65456	-963.35443	-1018.41565	78.38185	-882.98328	-841.28857	31.63181	-979.29767	-642.71130	1772.83655						 
